Coordinates
version=1
nRows=14
nColumns=40
inDegrees=yes

Units are S.I. units (second, meters, Newtons, ...)
Angles are in degrees.

endheader
time	pelvis_tilt	pelvis_list	pelvis_rotation	pelvis_tx	pelvis_ty	pelvis_tz	hip_flexion_r	hip_adduction_r	hip_rotation_r	knee_angle_r	knee_angle_r_beta	ankle_angle_r	subtalar_angle_r	mtp_angle_r	hip_flexion_l	hip_adduction_l	hip_rotation_l	knee_angle_l	knee_angle_l_beta	ankle_angle_l	subtalar_angle_l	mtp_angle_l	lumbar_extension	lumbar_bending	lumbar_rotation	arm_flex_r	arm_add_r	arm_rot_r	elbow_flex_r	pro_sup_r	wrist_flex_r	wrist_dev_r	arm_flex_l	arm_add_l	arm_rot_l	elbow_flex_l	pro_sup_l	wrist_flex_l	wrist_dev_l
     13.09000000	     -3.54185507	     -4.00027113	     -2.36831524	      0.80511340	      0.93086690	      0.42683404	     29.96155436	     -4.01807431	     -5.78214877	     64.08532312	     64.08532312	      1.40124348	    -17.18363185	      4.49481664	     16.19910958	     -4.11527384	     -6.22093461	     23.09222417	     23.09222417	     12.85024672	    -12.53571570	     -1.68878851	    -10.34383594	      5.61923793	      1.88825445	      6.80920078	    -11.43413997	     -2.48043748	     35.68197039	     46.13930565	      0.00000000	      0.00000000	     12.43143089	    -12.03219823	     -2.79000533	     43.37381667	     46.36618242	      0.00000000	      0.00000000
     13.10321429	     -3.60849044	     -4.08213969	     -2.74265322	      0.80434073	      0.93161420	      0.42642556	     30.59842430	     -3.73121046	     -5.58379341	     61.25750784	     61.25750784	      0.91111546	    -16.80911707	      1.67551629	     15.45200649	     -4.09087170	     -6.22695129	     22.46813649	     22.46813649	     12.84153089	    -13.02769399	     -1.77404154	    -10.49449700	      5.87229827	      1.87449738	      5.45631136	    -11.69701618	     -3.21583918	     32.80162651	     46.26953274	      0.00000000	      0.00000000	     13.15938502	    -12.51412497	     -2.94867843	     46.07208781	     46.43864753	      0.00000000	      0.00000000
     13.11642857	     -3.61462776	     -4.21323272	     -3.07765335	      0.80364503	      0.93238601	      0.42609679	     31.02043332	     -3.33541434	     -5.38366835	     58.23732278	     58.23732278	      1.21771720	    -16.04270074	      1.45529430	     14.66923455	     -4.18571155	     -6.47410425	     21.93013700	     21.93013700	     13.07308799	    -12.95224015	     -1.71798668	    -10.72352003	      6.20087959	      2.18629398	      3.53188290	    -12.25646152	     -3.32907864	     31.25720002	     46.32331492	      0.00000000	      0.00000000	     14.58731408	    -12.71601254	     -3.21044201	     47.55143344	     46.49639583	      0.00000000	      0.00000000
     13.12964286	     -3.66250664	     -4.28416032	     -3.40741189	      0.80288875	      0.93291158	      0.42582558	     31.25840432	     -3.01873527	     -5.24618809	     54.78266954	     54.78266954	      0.67504884	    -15.52927699	     -1.10454421	     13.98681480	     -4.21611748	     -6.71645637	     21.46174708	     21.46174708	     13.22574763	    -12.95876886	     -1.85195524	    -10.90405743	      6.39992772	      1.88160662	      2.95963038	    -12.27276397	     -4.84338829	     27.16328306	     46.58887832	      0.00000000	      0.00000000	     14.93046029	    -13.46553620	     -3.53531669	     51.01947105	     46.59811284	      0.00000000	      0.00000000
     13.14285714	     -3.76361988	     -4.44430226	     -3.66259292	      0.80213621	      0.93329218	      0.42556198	     31.42678962	     -2.62016733	     -5.22902221	     51.19170698	     51.19170698	      1.00063076	    -14.44134177	     -0.99543930	     13.39128572	     -4.33330117	     -6.85490126	     21.02405727	     21.02405727	     13.46104117	    -12.91017958	     -1.81007029	    -11.00437422	      6.76530202	      1.91932442	      1.18674093	    -12.79258767	     -5.02333223	     26.04655344	     46.63500997	      0.00000000	      0.00000000	     16.19459145	    -13.74548293	     -3.83049017	     52.21734098	     46.65244722	      0.00000000	      0.00000000
     13.15607143	     -3.80460805	     -4.51960729	     -3.93191951	      0.80139668	      0.93357711	      0.42540092	     31.38974033	     -2.32333445	     -5.25756628	     47.35221465	     47.35221465	      1.26758269	    -13.09973363	     -1.07471647	     12.78065115	     -4.37034657	     -7.05311555	     20.67695561	     20.67695561	     13.69503156	    -12.88653320	     -1.79956038	    -11.21205698	      6.97633790	      2.27718438	     -0.57290792	    -13.30515975	     -5.32214861	     24.66875936	     46.70478285	      0.00000000	      0.00000000	     17.46513989	    -13.91439962	     -4.13633989	     54.06738290	     46.71653568	      0.00000000	      0.00000000
     13.16928571	     -3.96632969	     -4.63056392	     -4.12147808	      0.80066079	      0.93354682	      0.42530932	     31.29040577	     -2.01256412	     -5.46903273	     43.22898868	     43.22898868	      1.56760727	    -11.56178847	     -1.14818559	     12.35525794	     -4.45198222	     -7.16116360	     20.39594835	     20.39594835	     13.95175890	    -12.84849961	     -1.83616350	    -11.25729046	      7.23699578	      2.29130160	     -2.17243444	    -13.74658934	     -5.65154295	     23.56896149	     46.76854578	      0.00000000	      0.00000000	     18.46057532	    -14.21284618	     -4.38744284	     55.84289278	     46.77166552	      0.00000000	      0.00000000
     13.18250000	     -4.15799533	     -4.63703084	     -4.30790792	      0.80003401	      0.93323893	      0.42537481	     31.04141320	     -1.80057692	     -5.77064263	     38.78819963	     38.78819963	      1.23750247	    -10.03041252	     -3.11981184	     11.98341577	     -4.44183010	     -7.30674281	     20.15568833	     20.15568833	     14.19416522	    -12.78430026	     -1.93760976	    -11.32147798	      7.32994649	      1.76457094	     -3.06254997	    -13.87065147	     -7.71082535	     21.98685157	     47.03012351	      0.00000000	      0.00000000	     18.13972291	    -15.12629126	     -4.85802717	     60.35907080	     46.89796266	      0.00000000	      0.00000000
     13.19571429	     -4.40259018	     -4.73054311	     -4.45235526	      0.79945753	      0.93284603	      0.42559214	     30.69943230	     -1.45208429	     -6.17604389	     34.22219356	     34.22219356	      1.54804927	     -8.00546015	     -2.81145253	     11.70842770	     -4.53998772	     -7.39503432	     19.98516931	     19.98516931	     14.44968936	    -12.76392358	     -2.01302263	    -11.23058837	      7.56157966	      1.74885010	     -4.62201966	    -14.24204959	     -7.95952443	     21.34105458	     47.06824697	      0.00000000	      0.00000000	     19.18555871	    -15.39462584	     -5.13716141	     61.51611367	     46.94725272	      0.00000000	      0.00000000
     13.20892857	     -4.70908994	     -4.75550425	     -4.62643687	      0.79905825	      0.93222663	      0.42604811	     30.30256728	     -1.12077675	     -6.62882944	     29.58918968	     29.58918968	      1.84652545	     -5.71524091	     -2.42323283	     11.47966666	     -4.58459583	     -7.51525468	     19.80387591	     19.80387591	     14.70113473	    -12.71540550	     -2.10238808	    -11.03671109	      7.69221492	      1.80095407	     -6.16572243	    -14.50216047	     -8.19767981	     20.89645022	     47.09572282	      0.00000000	      0.00000000	     20.08873010	    -15.63173070	     -5.35835223	     62.94525176	     46.99442222	      0.00000000	      0.00000000
     13.22214286	     -4.81825304	     -4.64764872	     -4.77400137	      0.79895356	      0.93162174	      0.42650702	     29.66384049	     -1.07418888	     -7.65464092	     25.15546044	     25.15546044	      2.16638160	     -2.31351218	     -2.16225573	     11.02872456	     -4.47987712	     -7.70104694	     19.64144957	     19.64144957	     15.02511156	    -12.55171390	     -2.30315894	    -11.17561664	      7.58855428	      1.79521689	     -8.08698539	    -14.76767722	     -9.57425630	     21.71513680	     47.16710970	      0.00000000	      0.00000000	     20.17590869	    -16.04172052	     -5.57634498	     66.63665650	     47.09438315	      0.00000000	      0.00000000
     13.23535714	     -5.14090562	     -4.57440824	     -4.94405434	      0.79890921	      0.93071439	      0.42740242	     29.14634994	     -0.68514748	     -8.02541084	     20.75371562	     20.75371562	      2.22592296	     -0.11883984	     -1.26254502	     10.81332787	     -4.44442104	     -7.81906593	     19.48760466	     19.48760466	     15.24105102	    -12.55190307	     -2.41581582	    -10.88121674	      7.57036360	      1.80284923	     -9.46773165	    -14.89711640	     -9.78440892	     21.40831271	     47.18458525	      0.00000000	      0.00000000	     20.92491996	    -16.25407601	     -5.75081337	     67.79526234	     47.13588798	      0.00000000	      0.00000000
     13.24857143	     -5.17397125	     -4.41853194	     -5.11958828	      0.79935361	      0.93005691	      0.42832162	     28.46891918	     -0.61674322	     -9.36297389	     17.13192436	     17.13192436	      2.81907530	      3.62112769	      0.66990370	     10.16900096	     -4.31606648	     -8.14177268	     19.20092114	     19.20092114	     15.55990609	    -12.26637045	     -2.71789226	    -11.02109588	      7.38504029	      2.00401291	    -11.31257451	    -15.02689396	    -10.60798196	     22.19393782	     47.19598154	      0.00000000	      0.00000000	     21.25094441	    -16.42376750	     -5.82732756	     70.56381142	     47.20852855	      0.00000000	      0.00000000
     13.26178571	     -5.36675588	     -4.33419907	     -5.29066552	      0.79986600	      0.92913296	      0.42964831	     27.92210258	     -0.22750158	     -9.90079335	     13.80010368	     13.80010368	      2.84448661	      5.53854315	      2.16274056	      9.75155274	     -4.28017714	     -8.27060010	     19.02314781	     19.02314781	     15.83724897	    -12.28263847	     -2.88193705	    -10.83963565	      7.30488586	      2.02725676	    -12.63393448	    -15.09309263	    -10.91144209	     22.26045765	     47.20131196	      0.00000000	      0.00000000	     21.73275985	    -16.60330624	     -5.93986387	     71.85204178	     47.24965179	      0.00000000	      0.00000000
